<svg width="230" height="32" viewBox="0 0 230 32" fill="none" xmlns="http://www.w3.org/2000/svg">
<g clip-path="url(#clip0_1_9066)">
<path d="M0 29.6H27.84L26.24 31.84H0V29.6Z" fill="#D40511"/>
<path d="M229.6 31.84H195.52L197.28 29.6H229.76V31.84H229.6Z" fill="#D40511"/>
<path d="M0 25.4399H31.04L29.28 27.6799H0V25.4399Z" fill="#D40511"/>
<path d="M0 21.2799H34.24L32.48 23.5199H0V21.2799Z" fill="#D40511"/>
<path d="M229.6 27.6799H198.72L200.48 25.4399H229.76V27.6799H229.6Z" fill="#D40511"/>
<path d="M203.52 21.2799H229.6V23.5199H201.76L203.52 21.2799Z" fill="#D40511"/>
<path d="M30.08 31.8399L44.8 12.1599C44.8 12.1599 61.12 12.1599 63.04 12.1599C65.12 12.1599 65.12 12.9599 64 14.2399C63.04 15.5199 61.28 17.9199 60.32 19.1999C59.84 19.9999 58.88 21.1199 61.92 21.1199C65.28 21.1199 86.4 21.1199 86.4 21.1199C84.48 23.9999 77.76 31.9999 65.92 31.9999C56.32 31.8399 30.08 31.8399 30.08 31.8399Z" fill="#D40511"/>
<path d="M114.4 21.2799L106.4 31.9999H85.44L93.44 21.2799H114.4Z" fill="#D40511"/>
<path d="M144.96 21.2799L136.96 31.9999H115.84L123.84 21.2799H144.96Z" fill="#D40511"/>
<path d="M151.84 21.2799C151.84 21.2799 150.24 23.3599 149.6 24.3199C146.88 27.8399 149.28 31.9999 157.92 31.9999C167.84 31.9999 191.84 31.9999 191.84 31.9999L199.84 21.2799H151.84Z" fill="#D40511"/>
<path d="M40.48 -3.41833e-05L33.12 9.75996C33.12 9.75996 71.04 9.75996 73.12 9.75996C75.2 9.75996 75.2 10.56 74.08 11.84C73.12 13.12 71.36 15.52 70.4 16.8C69.92 17.44 68.96 18.72 72 18.72C75.36 18.72 88.32 18.72 88.32 18.72C88.32 18.72 91.04 15.2 93.12 12.16C96.16 8.15996 93.44 -0.160034 82.72 -0.160034C73.12 -3.41833e-05 40.48 -3.41833e-05 40.48 -3.41833e-05Z" fill="#D40511"/>
<path d="M146.72 18.72H95.2L109.28 0H130.4L122.4 10.72H131.84L139.84 0H160.96L146.72 18.72Z" fill="#D40511"/>
<path d="M190.08 0L176 18.72H153.6L167.68 0H190.08Z" fill="#D40511"/>
</g>
<defs>
<clipPath id="clip0_1_9066">
<rect width="229.6" height="32" fill="white"/>
</clipPath>
</defs>
</svg>
