<svg width="110" height="32" viewBox="0 0 110 32" fill="none" xmlns="http://www.w3.org/2000/svg">
<path fill-rule="evenodd" clip-rule="evenodd" d="M73.4744 12.1558C73.4744 15.471 71.4088 19.8266 69.9159 22.7042C67.5709 27.2325 64.3986 29.9459 59.2404 30.2659C54.6811 30.5488 44.3767 31.3403 46.1819 23.6574C46.9648 20.3314 48.7043 17.401 49.7723 14.1892C53.3609 7.02906 62.3918 5.66415 69.5665 7.45351C71.995 8.33703 73.2876 9.51947 73.4744 12.1558ZM61.4326 12.4735C57.7449 12.4735 57.2957 17.6213 56.6033 20.3849C56.4295 21.4293 55.26 24.9283 57.1434 24.9283C61.5774 25.82 61.9897 20.9567 62.7354 17.716C63.0096 16.5237 63.5533 14.5234 63.3073 13.2996C63.3073 12.3894 62.038 12.5343 61.4326 12.4735ZM36.0467 12.696C35.5917 21.4144 29.4682 20.7359 22.1939 20.7026C19.4294 20.6912 16.6023 20.512 13.8695 20.512C12.8611 21.5348 15.7807 24.6372 16.602 25.1507C19.4057 26.8973 22.9235 26.1474 25.1806 23.8797C26.3931 23.8797 39.408 22.1786 34.9029 26.6758C32.7224 28.6159 29.6375 29.7618 26.8326 30.4249C17.9081 32.5354 -1.36993 27.4049 5.13215 14.8246C9.57693 7.50923 19.2041 3.50905 27.1504 1.44859C27.8903 1.30059 28.6212 1.18667 29.3745 1.13084C35.0281 0.708702 36.0467 8.51134 36.0467 12.696ZM27.7541 11.997C27.7541 11.2084 27.7864 10.3746 27.5317 9.61402C26.6591 6.0984 17.5033 13.6058 16.4114 14.6976C16.2743 14.9737 16.3779 14.8881 16.5702 14.9836C19.6088 14.9836 22.6544 14.9518 25.6888 14.9518C27.6872 14.6219 27.7541 14.0138 27.7541 11.997ZM45.3877 16.4768C44.6989 17.8642 44.8528 19.6843 43.4496 20.7343C41.5306 22.1701 36.6969 22.174 37.7624 18.7009C38.771 15.3992 40.6779 13.995 44.1486 14.8565C44.9952 15.14 45.1952 15.7008 45.3877 16.4768ZM105.819 12.1876C105.819 13.0764 105.632 13.9927 105.437 14.8565C104.29 19.9259 102.441 24.749 100.799 29.6306C99.2914 31.1376 96.1586 30.317 94.5394 29.3446C93.7295 28.5347 95.7428 24.402 96.0645 23.4032C96.5579 21.8692 99.2538 16.2128 96.9858 15.079C96.2563 15.079 95.6761 15.1744 94.9525 15.3649C88.1656 17.7409 83.3484 24.6495 78.4627 29.5353C76.345 30.6017 74.8243 30.3288 72.7437 29.2812C72.5373 29.0748 72.6372 28.7468 72.68 28.4868C74.2544 21.911 76.7444 15.3913 79.4475 9.20099C79.8728 7.93709 84.2425 8.40541 85.3255 8.94685C85.3255 10.3467 85.1786 12.696 87.2 12.696C91.735 12.1962 102.847 2.35211 105.66 10.7897C105.739 11.2661 105.819 11.6979 105.819 12.1876Z" fill="#F21C0A"/>
</svg>
