<svg width="65" height="32" viewBox="0 0 65 32" fill="none" xmlns="http://www.w3.org/2000/svg">
<g clip-path="url(#clip0_1_9064)">
<path d="M0 31.952H32.5976L64.5635 0H0V31.952Z" fill="#014185"/>
<path fill-rule="evenodd" clip-rule="evenodd" d="M38.2832 6.0053L31.9659 6.00403V21.1177L26.4066 6.00403H20.9736L16.1724 18.6438C15.667 15.4599 12.382 14.3594 9.72872 13.5356C8.0862 12.9822 6.19099 12.1685 6.31734 11.279C6.31734 10.5412 7.20177 9.86395 9.09698 9.96502C10.3605 10.0295 11.4976 10.1343 13.7718 11.2184L16.0461 7.36858C13.8982 6.32748 11.1185 5.66921 8.84428 5.66669C6.06464 5.66669 3.79039 6.54101 2.40057 7.99021C1.51614 8.99847 0.884399 10.2784 0.884399 11.6972C0.884399 13.6493 1.64248 15.0341 3.0323 16.1371C4.42213 17.0657 5.9383 17.6709 7.45446 18.1144C9.22333 18.6615 10.6131 19.1353 10.6131 20.1511C10.6131 20.5264 10.4868 20.8675 10.2341 21.1417C9.72871 21.5953 9.09698 21.7671 8.0862 21.7886C6.31734 21.8215 5.05386 21.5397 2.90596 20.2851L0.884399 24.1829C3.03231 25.3908 5.55925 26.1008 8.0862 26.1008L8.46524 26.0983C10.6131 26.0579 12.5084 25.4198 13.8982 24.26C14.0245 24.1917 14.0245 24.1286 14.1509 24.0654L13.5191 25.7622H19.3311L20.2156 22.8209C21.2263 23.1595 22.3635 23.3566 23.6269 23.3566C24.8904 23.3566 25.9012 23.1658 26.912 22.8449L27.9227 25.7622H37.2724V19.6609H39.4204C44.3479 19.6609 47.2539 17.1327 47.2539 12.8925C47.2539 8.17215 44.4742 6.0053 38.2832 6.0053ZM23.6269 18.9445C22.8688 18.9445 22.2371 18.8131 21.6054 18.5832L23.6269 12.2254L25.6485 18.6034C25.0167 18.8207 24.385 18.9445 23.6269 18.9445ZM38.6623 15.288H37.2724V10.1621H38.6623C40.5575 10.1621 42.0736 10.7825 42.0736 12.6992C42.0736 14.6702 40.5575 15.288 38.6623 15.288Z" fill="white"/>
<path d="M40.5575 29.9102C40.5575 28.9335 41.3156 28.1893 42.2 28.1893C43.0845 28.1893 43.8425 28.9335 43.8425 29.9102C43.8425 30.9235 43.0845 31.6538 42.2 31.6538C41.3156 31.6538 40.5575 30.9235 40.5575 29.9102ZM42.2 32C43.3372 32 44.3479 31.1143 44.3479 29.9102C44.3479 28.7238 43.3372 27.852 42.2 27.852C41.0629 27.852 40.0521 28.7238 40.0521 29.9102C40.0521 31.1143 41.0629 32 42.2 32ZM41.821 30.0833H42.2L42.8318 31.1143H43.2108L42.5791 30.0631C42.8318 30.0201 43.2108 29.8344 43.2108 29.4099C43.2108 28.9335 42.8318 28.7238 42.3264 28.7238H41.4419V31.1143H41.821V30.0833ZM41.821 29.775V29.0283H42.3264C42.4527 29.0283 42.8318 29.0864 42.8318 29.3884C42.8318 29.751 42.4527 29.775 42.2 29.775H41.821Z" fill="#014185"/>
</g>
<defs>
<clipPath id="clip0_1_9064">
<rect width="64.5635" height="32" fill="white"/>
</clipPath>
</defs>
</svg>
